<?xml version="1.0" standalone="no"?>
<!DOCTYPE svg PUBLIC "-//W3C//DTD SVG 20010904//EN"
 "http://www.w3.org/TR/2001/REC-SVG-20010904/DTD/svg10.dtd">
<svg version="1.0" xmlns="http://www.w3.org/2000/svg"
 width="500.000000pt" height="500.000000pt" viewBox="0 0 500.000000 500.000000"
 preserveAspectRatio="xMidYMid meet">

<g transform="translate(0.000000,500.000000) scale(0.100000,-0.100000)"
fill="#000000" stroke="none">
<path d="M1533 2830 c-58 -27 -63 -32 -63 -60 0 -35 3 -35 88 1 38 17 42 22
42 54 0 19 -1 35 -2 34 -2 0 -31 -13 -65 -29z"/>
<path d="M652 2701 c-56 -36 -66 -106 -19 -148 12 -11 48 -30 80 -43 42 -16
57 -27 57 -41 0 -30 -30 -36 -51 -11 -13 17 -28 22 -68 22 -28 0 -51 -2 -51
-5 0 -3 6 -20 14 -39 25 -59 137 -87 206 -51 31 16 60 61 60 94 0 33 -47 78
-100 96 -54 18 -75 37 -66 60 7 19 35 19 42 0 5 -11 21 -15 60 -15 64 0 69 13
25 62 -25 28 -35 32 -92 35 -51 3 -70 0 -97 -16z"/>
<path d="M1061 2698 c-5 -13 -29 -79 -54 -148 -25 -69 -50 -137 -56 -152 l-11
-28 54 0 c51 0 55 2 65 30 10 29 12 30 70 30 58 0 60 -1 66 -30 6 -29 9 -30
62 -30 40 0 54 3 51 13 -3 6 -31 85 -64 175 l-58 162 -58 0 c-51 0 -60 -3 -67
-22z m93 -175 c7 -21 4 -23 -27 -23 l-34 0 16 55 16 54 11 -32 c6 -18 14 -42
18 -54z"/>
<path d="M1390 2593 c0 -138 7 -163 52 -196 38 -28 124 -34 171 -12 59 28 77
78 77 218 l0 117 -50 0 -50 0 0 -111 c0 -61 -5 -119 -10 -130 -12 -22 -62 -26
-78 -6 -6 7 -13 64 -14 128 l-3 114 -47 3 -48 3 0 -128z"/>
<path d="M1790 2544 l0 -176 103 4 c86 3 108 7 141 27 66 41 94 138 62 215
-32 76 -99 106 -236 106 l-70 0 0 -176z m164 82 c88 -37 53 -176 -44 -176 -19
0 -20 6 -20 95 0 105 2 107 64 81z"/>
<path d="M2200 2545 l0 -175 110 0 110 0 0 40 0 40 -60 0 -60 0 0 30 c0 30 1
30 55 30 l55 0 0 35 0 35 -55 0 c-54 0 -55 0 -55 30 l0 30 60 0 60 0 0 40 0
40 -110 0 -110 0 0 -175z"/>
<path d="M2640 2680 l0 -40 45 0 45 0 0 -135 0 -135 50 0 50 0 0 135 0 135 45
0 45 0 0 40 0 40 -140 0 -140 0 0 -40z"/>
<path d="M3095 2707 c-109 -50 -137 -203 -53 -284 41 -39 76 -53 134 -53 97 0
165 64 172 161 8 110 -53 181 -162 186 -37 2 -73 -2 -91 -10z m126 -96 c68
-68 2 -189 -80 -146 -33 17 -41 33 -41 84 0 40 13 62 45 79 31 17 44 14 76
-17z"/>
<path d="M3420 2680 l0 -40 45 0 45 0 0 -135 0 -135 50 0 50 0 0 135 0 135 51
0 50 0 -3 38 -3 37 -142 3 -143 3 0 -41z"/>
<path d="M3881 2698 c-5 -13 -29 -79 -54 -148 -25 -69 -50 -137 -56 -152 l-11
-28 54 0 c51 0 55 2 65 30 10 29 12 30 70 30 58 0 60 -1 66 -30 6 -29 9 -30
62 -30 40 0 54 3 51 13 -3 6 -31 85 -64 175 l-58 162 -58 0 c-51 0 -60 -3 -67
-22z m93 -175 c7 -21 4 -23 -27 -23 l-34 0 16 55 16 54 11 -32 c6 -18 14 -42
18 -54z"/>
<path d="M4210 2545 l0 -175 105 0 105 0 0 35 0 35 -55 0 -55 0 0 140 0 140
-50 0 -50 0 0 -175z"/>
</g>
</svg>
